<mxfile host="app.diagrams.net" modified="2022-04-12T08:34:39.172Z" agent="5.0 (Macintosh; Intel Mac OS X 10_15_7) AppleWebKit/537.36 (KHTML, like Gecko) Chrome/99.0.4844.84 Safari/537.36" etag="7qdWIVolFMiCOdzuoSU1" version="17.1.2" type="github">
  <diagram id="C5RBs43oDa-KdzZeNtuy" name="阿里云视频上传">
    <mxGraphModel dx="826" dy="1666" grid="1" gridSize="10" guides="1" tooltips="1" connect="1" arrows="1" fold="1" page="1" pageScale="1" pageWidth="827" pageHeight="1169" math="0" shadow="0">
      <root>
        <mxCell id="WIyWlLk6GJQsqaUBKTNV-0" />
        <mxCell id="WIyWlLk6GJQsqaUBKTNV-1" parent="WIyWlLk6GJQsqaUBKTNV-0" />
        <mxCell id="BwifeKLoaYwZCKHpM3Pk-36" value="" style="endArrow=none;dashed=1;html=1;rounded=0;elbow=vertical;entryX=-0.029;entryY=-0.133;entryDx=0;entryDy=0;entryPerimeter=0;" edge="1" parent="WIyWlLk6GJQsqaUBKTNV-1">
          <mxGeometry width="50" height="50" relative="1" as="geometry">
            <mxPoint x="399.5" y="875.99" as="sourcePoint" />
            <mxPoint x="400.44000000000005" y="564.0000000000002" as="targetPoint" />
          </mxGeometry>
        </mxCell>
        <mxCell id="BwifeKLoaYwZCKHpM3Pk-35" value="" style="endArrow=none;dashed=1;html=1;rounded=0;elbow=vertical;entryX=-0.029;entryY=-0.133;entryDx=0;entryDy=0;entryPerimeter=0;" edge="1" parent="WIyWlLk6GJQsqaUBKTNV-1" target="BwifeKLoaYwZCKHpM3Pk-10">
          <mxGeometry width="50" height="50" relative="1" as="geometry">
            <mxPoint x="100" y="880" as="sourcePoint" />
            <mxPoint x="140" y="570" as="targetPoint" />
          </mxGeometry>
        </mxCell>
        <mxCell id="BwifeKLoaYwZCKHpM3Pk-34" value="" style="endArrow=none;dashed=1;html=1;rounded=0;elbow=vertical;exitX=0.957;exitY=-0.033;exitDx=0;exitDy=0;exitPerimeter=0;" edge="1" parent="WIyWlLk6GJQsqaUBKTNV-1" source="BwifeKLoaYwZCKHpM3Pk-10">
          <mxGeometry width="50" height="50" relative="1" as="geometry">
            <mxPoint x="230" y="480" as="sourcePoint" />
            <mxPoint x="239" y="880" as="targetPoint" />
          </mxGeometry>
        </mxCell>
        <mxCell id="BwifeKLoaYwZCKHpM3Pk-3" value="客户端" style="rounded=0;whiteSpace=wrap;html=1;" vertex="1" parent="WIyWlLk6GJQsqaUBKTNV-1">
          <mxGeometry x="70" y="520" width="70" height="40" as="geometry" />
        </mxCell>
        <mxCell id="BwifeKLoaYwZCKHpM3Pk-4" value="服务端" style="rounded=0;whiteSpace=wrap;html=1;" vertex="1" parent="WIyWlLk6GJQsqaUBKTNV-1">
          <mxGeometry x="210" y="520" width="70" height="40" as="geometry" />
        </mxCell>
        <mxCell id="BwifeKLoaYwZCKHpM3Pk-5" value="阿里云" style="rounded=0;whiteSpace=wrap;html=1;" vertex="1" parent="WIyWlLk6GJQsqaUBKTNV-1">
          <mxGeometry x="360" y="520" width="70" height="40" as="geometry" />
        </mxCell>
        <mxCell id="BwifeKLoaYwZCKHpM3Pk-6" value="" style="endArrow=classic;html=1;rounded=0;" edge="1" parent="WIyWlLk6GJQsqaUBKTNV-1">
          <mxGeometry width="50" height="50" relative="1" as="geometry">
            <mxPoint x="120" y="610" as="sourcePoint" />
            <mxPoint x="230" y="610" as="targetPoint" />
          </mxGeometry>
        </mxCell>
        <mxCell id="BwifeKLoaYwZCKHpM3Pk-7" value="" style="endArrow=classic;html=1;rounded=0;" edge="1" parent="WIyWlLk6GJQsqaUBKTNV-1">
          <mxGeometry width="50" height="50" relative="1" as="geometry">
            <mxPoint x="253" y="640" as="sourcePoint" />
            <mxPoint x="395" y="640" as="targetPoint" />
          </mxGeometry>
        </mxCell>
        <mxCell id="BwifeKLoaYwZCKHpM3Pk-8" value="" style="rounded=0;whiteSpace=wrap;html=1;" vertex="1" parent="WIyWlLk6GJQsqaUBKTNV-1">
          <mxGeometry x="234" y="600" width="10" height="70" as="geometry" />
        </mxCell>
        <mxCell id="BwifeKLoaYwZCKHpM3Pk-9" value="" style="rounded=0;whiteSpace=wrap;html=1;" vertex="1" parent="WIyWlLk6GJQsqaUBKTNV-1">
          <mxGeometry x="395" y="602" width="10" height="68" as="geometry" />
        </mxCell>
        <mxCell id="BwifeKLoaYwZCKHpM3Pk-10" value="申请上传凭证：&lt;br&gt;视频信息、用户信息等" style="text;html=1;resizable=0;autosize=1;align=center;verticalAlign=middle;points=[];fillColor=none;strokeColor=none;rounded=0;" vertex="1" parent="WIyWlLk6GJQsqaUBKTNV-1">
          <mxGeometry x="105" y="572" width="140" height="30" as="geometry" />
        </mxCell>
        <mxCell id="BwifeKLoaYwZCKHpM3Pk-11" value="" style="endArrow=classic;html=1;rounded=0;" edge="1" parent="WIyWlLk6GJQsqaUBKTNV-1">
          <mxGeometry width="50" height="50" relative="1" as="geometry">
            <mxPoint x="385" y="660" as="sourcePoint" />
            <mxPoint x="255" y="660" as="targetPoint" />
          </mxGeometry>
        </mxCell>
        <mxCell id="BwifeKLoaYwZCKHpM3Pk-12" value="" style="endArrow=classic;html=1;rounded=0;" edge="1" parent="WIyWlLk6GJQsqaUBKTNV-1">
          <mxGeometry width="50" height="50" relative="1" as="geometry">
            <mxPoint x="225" y="660" as="sourcePoint" />
            <mxPoint x="120" y="660" as="targetPoint" />
          </mxGeometry>
        </mxCell>
        <mxCell id="BwifeKLoaYwZCKHpM3Pk-13" value="请求阿里云？" style="text;html=1;resizable=0;autosize=1;align=center;verticalAlign=middle;points=[];fillColor=none;strokeColor=none;rounded=0;" vertex="1" parent="WIyWlLk6GJQsqaUBKTNV-1">
          <mxGeometry x="270" y="617.5" width="90" height="20" as="geometry" />
        </mxCell>
        <mxCell id="BwifeKLoaYwZCKHpM3Pk-14" value="凭证+OSS地址" style="text;html=1;resizable=0;autosize=1;align=center;verticalAlign=middle;points=[];fillColor=none;strokeColor=none;rounded=0;" vertex="1" parent="WIyWlLk6GJQsqaUBKTNV-1">
          <mxGeometry x="130" y="640" width="100" height="20" as="geometry" />
        </mxCell>
        <mxCell id="BwifeKLoaYwZCKHpM3Pk-15" value="" style="rounded=0;whiteSpace=wrap;html=1;" vertex="1" parent="WIyWlLk6GJQsqaUBKTNV-1">
          <mxGeometry x="96" y="585" width="10" height="85" as="geometry" />
        </mxCell>
        <mxCell id="BwifeKLoaYwZCKHpM3Pk-16" value="" style="rounded=0;whiteSpace=wrap;html=1;" vertex="1" parent="WIyWlLk6GJQsqaUBKTNV-1">
          <mxGeometry x="96" y="690" width="10" height="60" as="geometry" />
        </mxCell>
        <mxCell id="BwifeKLoaYwZCKHpM3Pk-18" value="" style="endArrow=classic;html=1;rounded=0;edgeStyle=orthogonalEdgeStyle;elbow=vertical;exitX=-0.4;exitY=0.859;exitDx=0;exitDy=0;exitPerimeter=0;" edge="1" parent="WIyWlLk6GJQsqaUBKTNV-1" source="BwifeKLoaYwZCKHpM3Pk-15">
          <mxGeometry width="50" height="50" relative="1" as="geometry">
            <mxPoint x="70" y="660" as="sourcePoint" />
            <mxPoint x="96" y="712" as="targetPoint" />
            <Array as="points">
              <mxPoint x="70" y="658" />
              <mxPoint x="70" y="712" />
            </Array>
          </mxGeometry>
        </mxCell>
        <mxCell id="BwifeKLoaYwZCKHpM3Pk-19" value="上传视频" style="text;html=1;resizable=0;autosize=1;align=center;verticalAlign=middle;points=[];fillColor=none;strokeColor=none;rounded=0;rotation=90;" vertex="1" parent="WIyWlLk6GJQsqaUBKTNV-1">
          <mxGeometry x="25" y="677" width="60" height="20" as="geometry" />
        </mxCell>
        <mxCell id="BwifeKLoaYwZCKHpM3Pk-20" value="" style="endArrow=classic;html=1;rounded=0;elbow=vertical;" edge="1" parent="WIyWlLk6GJQsqaUBKTNV-1">
          <mxGeometry width="50" height="50" relative="1" as="geometry">
            <mxPoint x="110" y="719.5" as="sourcePoint" />
            <mxPoint x="390" y="719.5" as="targetPoint" />
          </mxGeometry>
        </mxCell>
        <mxCell id="BwifeKLoaYwZCKHpM3Pk-21" value="调研SDK上传到指定OSS地址" style="text;html=1;resizable=0;autosize=1;align=center;verticalAlign=middle;points=[];fillColor=none;strokeColor=none;rounded=0;" vertex="1" parent="WIyWlLk6GJQsqaUBKTNV-1">
          <mxGeometry x="160" y="697" width="170" height="20" as="geometry" />
        </mxCell>
        <mxCell id="BwifeKLoaYwZCKHpM3Pk-22" value="" style="rounded=0;whiteSpace=wrap;html=1;" vertex="1" parent="WIyWlLk6GJQsqaUBKTNV-1">
          <mxGeometry x="395" y="697" width="10" height="58" as="geometry" />
        </mxCell>
        <mxCell id="BwifeKLoaYwZCKHpM3Pk-23" value="" style="endArrow=classic;html=1;rounded=0;elbow=vertical;" edge="1" parent="WIyWlLk6GJQsqaUBKTNV-1">
          <mxGeometry width="50" height="50" relative="1" as="geometry">
            <mxPoint x="380" y="740" as="sourcePoint" />
            <mxPoint x="120" y="740" as="targetPoint" />
          </mxGeometry>
        </mxCell>
        <mxCell id="BwifeKLoaYwZCKHpM3Pk-24" value="结果：成功/失败" style="text;html=1;resizable=0;autosize=1;align=center;verticalAlign=middle;points=[];fillColor=none;strokeColor=none;rounded=0;" vertex="1" parent="WIyWlLk6GJQsqaUBKTNV-1">
          <mxGeometry x="190" y="744" width="100" height="20" as="geometry" />
        </mxCell>
        <mxCell id="BwifeKLoaYwZCKHpM3Pk-25" value="" style="rounded=0;whiteSpace=wrap;html=1;" vertex="1" parent="WIyWlLk6GJQsqaUBKTNV-1">
          <mxGeometry x="95" y="790" width="10" height="60" as="geometry" />
        </mxCell>
        <mxCell id="BwifeKLoaYwZCKHpM3Pk-26" value="" style="rounded=0;whiteSpace=wrap;html=1;" vertex="1" parent="WIyWlLk6GJQsqaUBKTNV-1">
          <mxGeometry x="234" y="790" width="10" height="60" as="geometry" />
        </mxCell>
        <mxCell id="BwifeKLoaYwZCKHpM3Pk-27" value="" style="endArrow=classic;html=1;rounded=0;elbow=vertical;" edge="1" parent="WIyWlLk6GJQsqaUBKTNV-1">
          <mxGeometry width="50" height="50" relative="1" as="geometry">
            <mxPoint x="120" y="810" as="sourcePoint" />
            <mxPoint x="230" y="810" as="targetPoint" />
          </mxGeometry>
        </mxCell>
        <mxCell id="BwifeKLoaYwZCKHpM3Pk-28" value="通知上传结果" style="text;html=1;resizable=0;autosize=1;align=center;verticalAlign=middle;points=[];fillColor=none;strokeColor=none;rounded=0;" vertex="1" parent="WIyWlLk6GJQsqaUBKTNV-1">
          <mxGeometry x="130" y="790" width="90" height="20" as="geometry" />
        </mxCell>
        <mxCell id="BwifeKLoaYwZCKHpM3Pk-29" value="" style="endArrow=classic;html=1;rounded=0;elbow=vertical;edgeStyle=orthogonalEdgeStyle;" edge="1" parent="WIyWlLk6GJQsqaUBKTNV-1">
          <mxGeometry width="50" height="50" relative="1" as="geometry">
            <mxPoint x="250" y="810" as="sourcePoint" />
            <mxPoint x="250" y="840" as="targetPoint" />
            <Array as="points">
              <mxPoint x="284" y="810" />
              <mxPoint x="284" y="840" />
              <mxPoint x="264" y="840" />
            </Array>
          </mxGeometry>
        </mxCell>
        <mxCell id="BwifeKLoaYwZCKHpM3Pk-30" value="入库" style="text;html=1;resizable=0;autosize=1;align=center;verticalAlign=middle;points=[];fillColor=none;strokeColor=none;rounded=0;rotation=90;" vertex="1" parent="WIyWlLk6GJQsqaUBKTNV-1">
          <mxGeometry x="278" y="811" width="40" height="20" as="geometry" />
        </mxCell>
        <mxCell id="BwifeKLoaYwZCKHpM3Pk-31" value="" style="endArrow=classic;html=1;rounded=0;elbow=vertical;" edge="1" parent="WIyWlLk6GJQsqaUBKTNV-1">
          <mxGeometry width="50" height="50" relative="1" as="geometry">
            <mxPoint x="230" y="830" as="sourcePoint" />
            <mxPoint x="120" y="830" as="targetPoint" />
          </mxGeometry>
        </mxCell>
        <mxCell id="BwifeKLoaYwZCKHpM3Pk-32" value="结果：成功/失败" style="text;html=1;resizable=0;autosize=1;align=center;verticalAlign=middle;points=[];fillColor=none;strokeColor=none;rounded=0;" vertex="1" parent="WIyWlLk6GJQsqaUBKTNV-1">
          <mxGeometry x="125" y="840" width="100" height="20" as="geometry" />
        </mxCell>
        <mxCell id="BwifeKLoaYwZCKHpM3Pk-37" value="" style="endArrow=classic;html=1;rounded=0;elbow=vertical;edgeStyle=orthogonalEdgeStyle;" edge="1" parent="WIyWlLk6GJQsqaUBKTNV-1">
          <mxGeometry width="50" height="50" relative="1" as="geometry">
            <mxPoint x="246" y="587.5" as="sourcePoint" />
            <mxPoint x="246" y="617.5" as="targetPoint" />
            <Array as="points">
              <mxPoint x="280" y="587.5" />
              <mxPoint x="280" y="617.5" />
              <mxPoint x="260" y="617.5" />
            </Array>
          </mxGeometry>
        </mxCell>
        <mxCell id="BwifeKLoaYwZCKHpM3Pk-38" value="暂存" style="text;html=1;resizable=0;autosize=1;align=center;verticalAlign=middle;points=[];fillColor=none;strokeColor=none;rounded=0;" vertex="1" parent="WIyWlLk6GJQsqaUBKTNV-1">
          <mxGeometry x="278" y="585" width="40" height="20" as="geometry" />
        </mxCell>
      </root>
    </mxGraphModel>
  </diagram>
</mxfile>
